<svg width="51" height="45" viewBox="0 0 51 45" fill="none" xmlns="http://www.w3.org/2000/svg">
<g clip-path="url(#clip0_328_259)">
<path d="M25.1339 12.3615C24.1339 -1.63849 40.1339 -1.6385 43.1339 7.36151H49.1339L45.134 13.3615C45.134 51.3615 7.13391 44.3615 2.1339 39.3615C2.1339 39.3615 13.9059 36.6235 20.1339 30.3615C25.9849 24.4785 29.8419 36.4735 16.8469 33.1385C2.13388 29.3615 1.13391 17.3615 1.13391 17.3615C1.13391 17.3615 10.1339 18.3615 14.1339 19.3615C18.1339 20.3615 16.1339 25.3615 13.1339 24.3615C10.1339 23.3615 3.13391 17.3615 4.1339 3.3615C9.15791 10.6955 21.1339 18.3615 31.1339 15.3615" stroke="white" stroke-width="2.26772" stroke-miterlimit="10" stroke-linecap="round" stroke-linejoin="round"/>
</g>
<defs>
<clipPath id="clip0_328_259">
<rect width="50.2676" height="44.4883" fill="white"/>
</clipPath>
</defs>
</svg>
